<?xml version="1.0" encoding="UTF-8"?>
<svg id="Capa_1" xmlns="http://www.w3.org/2000/svg" version="1.1" xmlns:xlink="http://www.w3.org/1999/xlink" viewBox="0 0 1080 1080">
  <!-- Generator: Adobe Illustrator 29.1.0, SVG Export Plug-In . SVG Version: 2.1.0 Build 142)  -->
  <defs>
    <style>
      .st0 {
        fill: url(#Degradado_sin_nombre_16);
      }

      .st1 {
        fill: url(#Degradado_sin_nombre_78);
      }

      .st2 {
        fill: url(#radial-gradient);
      }

      .st3 {
        fill: url(#Degradado_sin_nombre_268);
      }

      .st4 {
        fill: url(#Degradado_sin_nombre_91);
      }
    </style>
    <radialGradient id="Degradado_sin_nombre_16" data-name="Degradado sin nombre 16" cx="542.7" cy="546.8" fx="542.7" fy="546.8" r="433.9" gradientUnits="userSpaceOnUse">
      <stop offset=".1" stop-color="#ffe66a"/>
      <stop offset=".5" stop-color="#fff100"/>
      <stop offset=".9" stop-color="#aa8400"/>
    </radialGradient>
    <radialGradient id="radial-gradient" cx="1049.7" cy="882.1" fx="1049.7" fy="882.1" r="0" gradientUnits="userSpaceOnUse">
      <stop offset=".1" stop-color="#00adee"/>
      <stop offset=".5" stop-color="#14a1df"/>
      <stop offset=".9" stop-color="#222265"/>
    </radialGradient>
    <radialGradient id="Degradado_sin_nombre_268" data-name="Degradado sin nombre 268" cx="656.6" cy="489.8" fx="656.6" fy="489.8" r="357.9" gradientUnits="userSpaceOnUse">
      <stop offset="0" stop-color="#aa9700"/>
      <stop offset=".5" stop-color="#f3ff7f"/>
      <stop offset=".9" stop-color="#fff155"/>
    </radialGradient>
    <radialGradient id="Degradado_sin_nombre_91" data-name="Degradado sin nombre 91" cx="-2230.7" cy="1063.1" fx="-2230.7" fy="1063.1" r="331.8" gradientTransform="translate(-1997.2 -26.5) rotate(166.1) scale(1 -1) skewX(-5.8)" gradientUnits="userSpaceOnUse">
      <stop offset=".1" stop-color="#ff5559"/>
      <stop offset=".5" stop-color="#d4000b"/>
      <stop offset=".9" stop-color="#7f0003"/>
    </radialGradient>
    <radialGradient id="Degradado_sin_nombre_78" data-name="Degradado sin nombre 78" cx="709.7" cy="4024.6" fx="709.7" fy="4024.6" r="521" gradientTransform="translate(-3721.9 2867.2) rotate(-115.9) scale(1.1 1.2) skewX(-11.6)" gradientUnits="userSpaceOnUse">
      <stop offset=".1" stop-color="#ff6a76"/>
      <stop offset=".5" stop-color="#d4001d"/>
      <stop offset=".9" stop-color="#7f000e"/>
    </radialGradient>
  </defs>
  <g>
    <path class="st0" d="M302.8,695.6c-9.4-1.8-74.1,47.6-43.5,176.6-78-104.3-82.5-242.2-15.9-350.8,50-81.5,133.5-156.5,151.1-254.1,7.7-42.8,2.8-83.1-9.4-124.4,54,33.4,97.8,114.2,96.1,140.7,9.5-62.9,2.5-126.1-23.4-184.3-9.3-20.9-22.9-39.2-33.2-59.4,77.3,52.8,145.5,136,170.9,227.3,44.8,160.9-46,216.1-105.2,346.3-97.7,214.9,168.2,470.8,398.1,226.4-264.9,451.8-757.5,81.2-585.6-144.4Z"/>
    <path class="st2" d="M1049.7,882.1"/>
  </g>
  <path class="st3" d="M595.6,267.3c44.8,160.9-46,216.1-105.2,346.3-97.7,214.9,168.2,470.8,398.1,226.4-231.1,205.5-461.2-26.1-362.8-220.7,64.5-127.7,136.1-194.6,91.3-355.5-25.4-91.3-115-171.1-192.2-223.9,77.3,52.8,145.5,136,170.9,227.3Z"/>
  <path class="st4" d="M862.9,758.2c64.2-122.9,30.2-420.8-377.2-731.9,291.6,244.2,160.4,480.9,71.7,608.3-106.5,152.8,169.7,383.2,305.5,123.6Z"/>
  <path class="st1" d="M862.9,758.2c64.2-122.9,30.2-420.8-377.2-731.9,291.6,244.2,203.8,474.1,115,601.5-106.5,152.8,126.3,389.9,262.1,130.4Z"/>
</svg>